<svg width="198" height="110" viewBox="0 0 198 110" fill="none" xmlns="http://www.w3.org/2000/svg">
<g filter="url(#filter0_d_46_176)">
<path d="M55.28 89.264C53.552 89.264 51.584 88.904 49.376 88.184C47.216 87.464 44.984 86.6 42.68 85.592C40.424 84.584 38.192 83.6 35.984 82.64C34.784 83.984 33.512 85.016 32.168 85.736C30.824 86.456 29.36 86.816 27.776 86.816C26.144 86.816 24.752 86.432 23.6 85.664C22.4 84.944 21.512 84.056 20.936 83C20.312 81.992 20 81.08 20 80.264C20 79.352 20.432 78.56 21.296 77.888C22.112 77.168 23.576 76.808 25.688 76.808C26.936 76.808 28.328 76.952 29.864 77.24C31.448 77.48 33.056 77.816 34.688 78.248C35.792 76.328 36.824 74.048 37.784 71.408C38.744 68.768 39.68 66.008 40.592 63.128C41.504 60.2 42.44 57.32 43.4 54.488C41.048 53.72 39.224 52.616 37.928 51.176C36.632 49.736 35.984 48.248 35.984 46.712C35.984 45.752 36.2 44.816 36.632 43.904C37.112 42.992 37.76 42.224 38.576 41.6C39.392 40.976 40.376 40.664 41.528 40.664C41 41.336 40.64 42.152 40.448 43.112C40.304 44.024 40.232 44.792 40.232 45.416C40.232 47.096 40.592 48.512 41.312 49.664C42.08 50.768 43.016 51.656 44.12 52.328C45.032 49.544 45.992 46.88 47 44.336C48.056 41.792 49.208 39.536 50.456 37.568C51.752 35.6 53.168 34.04 54.704 32.888C56.24 31.736 57.968 31.16 59.888 31.16C60.944 31.16 62.048 31.4 63.2 31.88C64.4 32.312 65.408 33.08 66.224 34.184C67.088 35.24 67.52 36.776 67.52 38.792C67.52 40.424 67.16 42.176 66.44 44.048C65.768 45.92 64.712 47.72 63.272 49.448C61.832 51.128 59.96 52.544 57.656 53.696C55.4 54.8 52.688 55.376 49.52 55.424C49.424 55.424 49.304 55.424 49.16 55.424C49.064 55.424 48.872 55.424 48.584 55.424C47.672 58.256 46.688 61.136 45.632 64.064C44.624 66.944 43.52 69.704 42.32 72.344C41.168 74.984 39.92 77.312 38.576 79.328C40.544 79.904 42.656 80.552 44.912 81.272C47.216 81.944 49.472 82.52 51.68 83C53.936 83.432 55.928 83.648 57.656 83.648C58.76 83.648 59.768 83.528 60.68 83.288C61.64 83.048 62.6 82.688 63.56 82.208C62.696 84.704 61.568 86.504 60.176 87.608C58.832 88.712 57.2 89.264 55.28 89.264ZM27.2 84.368C28.4 84.368 29.408 84.08 30.224 83.504C31.04 82.928 31.832 82.208 32.6 81.344C31.112 80.768 29.696 80.288 28.352 79.904C27.056 79.52 25.88 79.328 24.824 79.328C23.912 79.328 23.264 79.496 22.88 79.832C22.496 80.12 22.304 80.504 22.304 80.984C22.304 81.752 22.784 82.496 23.744 83.216C24.704 83.984 25.856 84.368 27.2 84.368ZM49.304 53.408C51.416 53.312 53.312 52.664 54.992 51.464C56.672 50.264 58.088 48.8 59.24 47.072C60.44 45.296 61.328 43.52 61.904 41.744C62.528 39.92 62.84 38.336 62.84 36.992C62.84 35.696 62.6 34.808 62.12 34.328C61.64 33.848 61.064 33.608 60.392 33.608C59 33.608 57.656 34.52 56.36 36.344C55.112 38.168 53.912 40.592 52.76 43.616C51.608 46.592 50.456 49.856 49.304 53.408ZM73.8616 85.16C72.2296 85.16 70.8856 84.416 69.8296 82.928C68.8216 81.44 68.3176 79.712 68.3176 77.744C68.3176 76.4 68.5336 74.816 68.9656 72.992C69.4456 71.168 70.0216 69.392 70.6936 67.664C71.3656 65.888 72.0616 64.424 72.7816 63.272C73.5496 62.12 74.2216 61.544 74.7976 61.544C75.1336 61.544 75.6136 61.712 76.2376 62.048C76.9096 62.384 77.4856 62.792 77.9656 63.272C77.4376 64.04 76.7896 65.24 76.0216 66.872C75.3016 68.504 74.6536 70.256 74.0776 72.128C73.5016 73.952 73.2136 75.632 73.2136 77.168C73.2136 77.408 73.2376 77.912 73.2856 78.68C73.3816 79.4 73.5736 80.072 73.8616 80.696C74.1976 81.32 74.7496 81.632 75.5176 81.632C76.3336 81.632 77.2216 81.2 78.1816 80.336C79.1416 79.424 80.1016 78.248 81.0616 76.808C82.0696 75.368 83.0296 73.808 83.9416 72.128C84.8536 70.448 85.6936 68.84 86.4616 67.304C87.2296 65.768 87.8536 64.472 88.3336 63.416C88.7176 63.464 89.2216 63.584 89.8456 63.776C90.5176 63.92 91.0936 64.136 91.5736 64.424C92.1016 64.712 92.3656 65.12 92.3656 65.648C92.3656 65.792 92.1256 66.392 91.6456 67.448C91.2136 68.504 90.6856 69.776 90.0616 71.264C89.4376 72.752 88.8856 74.264 88.4056 75.8C87.9736 77.336 87.7576 78.68 87.7576 79.832C87.7576 80.552 87.9016 81.176 88.1896 81.704C88.4776 82.232 89.0296 82.496 89.8456 82.496C90.8536 82.496 92.0536 82.04 93.4456 81.128C94.8856 80.216 96.3496 78.896 97.8376 77.168C99.3256 75.392 100.646 73.304 101.798 70.904L102.806 71.696C101.75 74.288 100.382 76.616 98.7016 78.68C97.0696 80.696 95.2936 82.28 93.3736 83.432C91.5016 84.584 89.6776 85.16 87.9016 85.16C86.5576 85.16 85.5256 84.848 84.8056 84.224C84.0856 83.648 83.5816 82.88 83.2936 81.92C83.0536 80.96 82.9336 79.976 82.9336 78.968C82.9336 78.632 82.9336 78.272 82.9336 77.888C82.9816 77.504 83.0296 77.144 83.0776 76.808C82.2616 78.2 81.3496 79.544 80.3416 80.84C79.3816 82.088 78.3496 83.12 77.2456 83.936C76.1896 84.752 75.0616 85.16 73.8616 85.16ZM139.125 85.232C137.301 85.232 135.957 84.68 135.093 83.576C134.229 82.52 133.797 81.248 133.797 79.76C133.797 78.608 133.965 77.48 134.301 76.376C134.637 75.224 134.973 74.096 135.309 72.992C135.693 71.888 135.885 70.88 135.885 69.968C135.885 69.104 135.693 68.504 135.309 68.168C134.973 67.832 134.565 67.664 134.085 67.664C132.933 67.664 131.637 68.552 130.197 70.328C128.757 72.056 126.933 74.552 124.725 77.816C123.957 78.968 123.261 80.168 122.637 81.416C122.013 82.664 121.437 83.744 120.909 84.656C120.525 84.656 119.997 84.584 119.325 84.44C118.653 84.296 118.053 84.104 117.525 83.864C117.045 83.624 116.805 83.312 116.805 82.928C116.805 82.496 117.045 81.656 117.525 80.408C118.005 79.16 118.557 77.696 119.181 76.016C119.805 74.336 120.333 72.68 120.765 71.048C121.245 69.368 121.485 67.952 121.485 66.8C121.485 66.08 121.365 65.528 121.125 65.144C120.885 64.712 120.477 64.496 119.901 64.496C118.893 64.496 117.669 65.12 116.229 66.368C114.789 67.568 113.277 69.152 111.693 71.12C110.109 73.088 108.621 75.296 107.229 77.744C105.885 80.144 104.781 82.544 103.917 84.944C103.389 84.944 102.765 84.848 102.045 84.656C101.325 84.464 100.701 84.224 100.173 83.936C99.6446 83.648 99.3806 83.384 99.3806 83.144C99.3806 83 99.5726 82.256 99.9566 80.912C100.341 79.568 100.821 77.912 101.397 75.944C101.925 73.976 102.429 71.96 102.909 69.896C103.437 67.832 103.845 66.008 104.133 64.424C104.325 63.992 104.829 63.584 105.645 63.2C106.461 62.816 107.205 62.624 107.877 62.624C108.549 62.624 109.077 62.816 109.461 63.2C109.893 63.584 110.109 64.112 110.109 64.784C110.109 65.312 109.989 66.152 109.749 67.304C109.509 68.408 109.197 69.656 108.813 71.048C109.821 69.608 110.901 68.192 112.053 66.8C113.205 65.36 114.405 64.064 115.653 62.912C116.949 61.76 118.221 60.848 119.469 60.176C120.765 59.456 122.037 59.096 123.285 59.096C124.965 59.096 126.093 59.696 126.669 60.896C127.293 62.096 127.605 63.44 127.605 64.928C127.605 65.744 127.509 66.584 127.317 67.448C127.173 68.312 126.981 69.128 126.741 69.896C126.549 70.664 126.309 71.432 126.021 72.2C126.933 70.712 127.965 69.296 129.117 67.952C130.269 66.608 131.493 65.552 132.789 64.784C134.085 63.968 135.477 63.56 136.965 63.56C138.741 63.56 139.965 64.088 140.637 65.144C141.309 66.2 141.645 67.376 141.645 68.672C141.645 69.92 141.429 71.264 140.997 72.704C140.613 74.096 140.205 75.44 139.773 76.736C139.341 77.984 139.125 79.064 139.125 79.976C139.125 80.504 139.245 80.984 139.485 81.416C139.773 81.848 140.301 82.064 141.069 82.064C142.365 82.064 143.613 81.464 144.813 80.264C146.013 79.064 147.117 77.6 148.125 75.872C149.133 74.096 149.997 72.416 150.717 70.832L151.797 72.128C151.029 74.144 150.045 76.16 148.845 78.176C147.645 80.192 146.229 81.872 144.597 83.216C142.965 84.56 141.141 85.232 139.125 85.232ZM156.424 85.088C154.408 85.088 152.896 84.464 151.888 83.216C150.88 82.016 150.376 80.528 150.376 78.752C150.376 77.648 150.568 76.256 150.952 74.576C151.336 72.896 151.864 71.144 152.536 69.32C153.256 67.448 154.072 65.696 154.984 64.064C155.896 62.432 156.856 61.112 157.864 60.104C158.92 59.048 159.952 58.52 160.96 58.52C161.488 58.52 161.944 58.688 162.328 59.024C162.76 59.36 162.976 59.84 162.976 60.464C162.976 61.088 162.592 62.024 161.824 63.272C161.104 64.52 160.24 65.984 159.232 67.664C158.224 69.296 157.336 71 156.568 72.776C155.848 74.552 155.488 76.256 155.488 77.888C155.488 79.472 155.776 80.528 156.352 81.056C156.928 81.584 157.768 81.848 158.872 81.848C160.504 81.848 162.256 81.032 164.128 79.4C166.048 77.768 168.04 74.912 170.104 70.832L171.04 71.84C169.456 76.064 167.344 79.328 164.704 81.632C162.112 83.936 159.352 85.088 156.424 85.088ZM164.992 52.4C164.128 52.4 163.336 52.184 162.616 51.752C161.944 51.32 161.608 50.672 161.608 49.808C161.608 48.656 162.208 47.696 163.408 46.928C164.656 46.112 165.928 45.704 167.224 45.704C168.04 45.704 168.712 45.896 169.24 46.28C169.768 46.664 170.032 47.312 170.032 48.224C170.032 49.232 169.504 50.192 168.448 51.104C167.392 51.968 166.24 52.4 164.992 52.4Z" fill="#1D1D1F"/>
</g>
<g filter="url(#filter1_d_46_176)">
<path d="M173.134 28L171.884 25.25L169.134 24L171.884 22.75L173.134 20L174.384 22.75L177.134 24L174.384 25.25L173.134 28ZM173.134 42L171.884 39.25L169.134 38L171.884 36.75L173.134 34L174.384 36.75L177.134 38L174.384 39.25L173.134 42ZM163.134 39L160.634 33.5L155.134 31L160.634 28.5L163.134 23L165.634 28.5L171.134 31L165.634 33.5L163.134 39Z" fill="#FF8C00"/>
</g>
<defs>
<filter id="filter0_d_46_176" x="0" y="11.16" width="191.04" height="98.104" filterUnits="userSpaceOnUse" color-interpolation-filters="sRGB">
<feFlood flood-opacity="0" result="BackgroundImageFix"/>
<feColorMatrix in="SourceAlpha" type="matrix" values="0 0 0 0 0 0 0 0 0 0 0 0 0 0 0 0 0 0 127 0" result="hardAlpha"/>
<feOffset/>
<feGaussianBlur stdDeviation="10"/>
<feComposite in2="hardAlpha" operator="out"/>
<feColorMatrix type="matrix" values="0 0 0 0 1 0 0 0 0 0.54902 0 0 0 0 0 0 0 0 0.1 0"/>
<feBlend mode="normal" in2="BackgroundImageFix" result="effect1_dropShadow_46_176"/>
<feBlend mode="normal" in="SourceGraphic" in2="effect1_dropShadow_46_176" result="shape"/>
</filter>
<filter id="filter1_d_46_176" x="135.134" y="0" width="62" height="62" filterUnits="userSpaceOnUse" color-interpolation-filters="sRGB">
<feFlood flood-opacity="0" result="BackgroundImageFix"/>
<feColorMatrix in="SourceAlpha" type="matrix" values="0 0 0 0 0 0 0 0 0 0 0 0 0 0 0 0 0 0 127 0" result="hardAlpha"/>
<feOffset/>
<feGaussianBlur stdDeviation="10"/>
<feComposite in2="hardAlpha" operator="out"/>
<feColorMatrix type="matrix" values="0 0 0 0 1 0 0 0 0 0.54902 0 0 0 0 0 0 0 0 0.1 0"/>
<feBlend mode="normal" in2="BackgroundImageFix" result="effect1_dropShadow_46_176"/>
<feBlend mode="normal" in="SourceGraphic" in2="effect1_dropShadow_46_176" result="shape"/>
</filter>
</defs>
</svg>
