<svg xmlns="http://www.w3.org/2000/svg" viewBox="0 0 100 100">
  <defs>
    <radialGradient id="bgGlow" cx="75%" cy="25%" r="44%">
      <stop offset="0%" stop-color="#FD9E78" stop-opacity="0.22" />
      <stop offset="55%" stop-color="#FF8C00" stop-opacity="0.10" />
      <stop offset="100%" stop-color="#FF8C00" stop-opacity="0" />
    </radialGradient>
    <radialGradient id="sparkGlow" cx="50%" cy="50%" r="50%">
      <stop offset="0%" stop-color="#FFF9F2" stop-opacity="0.98" />
      <stop offset="35%" stop-color="#FD9E78" stop-opacity="0.95" />
      <stop offset="70%" stop-color="#FF8C00" stop-opacity="0.62" />
      <stop offset="100%" stop-color="#904D00" stop-opacity="0" />
    </radialGradient>
  </defs>
  <!-- Gallery Bone background (DESIGN.md) -->
  <rect width="100" height="100" rx="22" fill="#FAF9F8" />
  <rect width="100" height="100" rx="22" fill="url(#bgGlow)" />
  <path
    d="M22 22 C28 18 32 20 31 26 C28 42 25 55 24 70 C35 70 45 68 56 64 C58 63 60 64 60 67 C60 70 57 72 54 73 C42 78 31 80 22 80 C18 80 16 78 17 73 C18 59 22 41 26 27 C27 24 25 24 22 26 Z"
    fill="#1A1C1C"
  />
  <circle cx="63" cy="28" r="10.5" fill="url(#sparkGlow)" />
  <circle cx="63" cy="28" r="2.1" fill="#FFFFFF" opacity="0.9" />
  <circle cx="63" cy="28" r="1.1" fill="#FF8C00" opacity="0.95" />
</svg>
